<svg xmlns="http://www.w3.org/2000/svg" viewBox="-24 -159 652 185">
<g fill="#23262E"><path transform="translate(0.00,0) scale(0.184000,-0.184000)" d="M201 543V85Q201 59 206.0 46.5Q211 34 225.5 29.5Q240 25 268 25H333Q403 25 450.5 64.5Q498 104 513 170Q514 173 519.0 172.0Q524 171 524 168Q521 138 518.0 95.0Q515 52 515 15Q515 0 500 0H32Q30 0 30.0 6.0Q30 12 32 12Q65 12 81.5 17.0Q98 22 104.0 37.0Q110 52 110 81V544Q110 573 104.0 587.5Q98 602 81.5 607.5Q65 613 32 613Q30 613 30.0 619.0Q30 625 32 625Q56 625 88.0 623.5Q120 622 155 622Q192 622 223.0 623.5Q254 625 278 625Q281 625 281.0 619.0Q281 613 278 613Q246 613 229.5 607.5Q213 602 207.0 587.0Q201 572 201 543Z"/><path transform="translate(99.36,0) scale(0.184000,-0.184000)" d="M228 -12Q165 -12 121.5 15.0Q78 42 56.0 86.5Q34 131 34 181Q34 241 62.5 289.0Q91 337 141.0 366.0Q191 395 253 395Q312 395 345.0 366.5Q378 338 378 280Q378 267 375.5 259.0Q373 251 366 251H287Q290 310 273.0 342.5Q256 375 217 375Q172 375 146.0 333.5Q120 292 120 222Q120 165 138.0 122.0Q156 79 191.0 55.0Q226 31 277 31Q308 31 329.5 39.5Q351 48 374 61Q376 63 379.5 59.0Q383 55 381 52Q345 17 307.5 2.5Q270 -12 228 -12ZM92 250 91 267 313 271V251Z"/><path transform="translate(175.54,0) scale(0.184000,-0.184000)" d="M559 0Q556 0 556.0 6.0Q556 12 559 12Q593 12 605.0 26.0Q617 40 617 81V231Q617 342 537 342Q504 342 472.0 323.5Q440 305 419 273L414 285Q452 339 494.0 368.0Q536 397 584 397Q637 397 665.5 367.0Q694 337 694 274V81Q694 40 705.5 26.0Q717 12 752 12Q756 12 756.0 6.0Q756 0 752 0Q733 0 708.0 1.0Q683 2 655 2Q628 2 603.0 1.0Q578 0 559 0ZM298 0Q295 0 295.0 6.0Q295 12 298 12Q333 12 344.5 26.0Q356 40 356 81V231Q356 342 277 342Q244 342 212.0 323.5Q180 305 158 273L154 285Q191 339 233.5 368.0Q276 397 323 397Q376 397 405.0 368.0Q434 339 434 281V81Q434 40 445.5 26.0Q457 12 492 12Q495 12 495.0 6.0Q495 0 492 0Q472 0 447.5 1.0Q423 2 395 2Q368 2 342.5 1.0Q317 0 298 0ZM41 0Q38 0 38.0 6.0Q38 12 41 12Q76 12 87.0 26.0Q98 40 98 81V273Q98 305 91.0 320.0Q84 335 66 335Q56 335 43.5 331.0Q31 327 15 320Q11 319 9.0 324.5Q7 330 9 331L139 394Q144 396 145 396Q155 396 166.0 373.0Q177 350 177 307V81Q177 40 188.5 26.0Q200 12 234 12Q237 12 237.0 6.0Q237 0 234 0Q215 0 190.0 1.0Q165 2 138 2Q111 2 85.5 1.0Q60 0 41 0Z"/><path transform="translate(317.40,0) scale(0.184000,-0.184000)" d="M262 -13Q220 -13 180.5 1.5Q141 16 107 46L164 151Q164 97 185.0 65.0Q206 33 235.5 20.0Q265 7 289 7Q339 7 365.5 51.0Q392 95 392 177Q392 268 359.5 311.0Q327 354 274 354Q239 354 208.0 336.0Q177 318 151 294L143 302Q164 324 188.5 346.5Q213 369 244.5 384.0Q276 399 316 399Q359 399 396.0 378.5Q433 358 456.0 317.0Q479 276 479 213Q479 138 447.5 87.5Q416 37 366.0 12.0Q316 -13 262 -13ZM38 -6Q34 -7 32.0 -2.5Q30 2 34 3Q59 20 72.5 41.5Q86 63 86 103V592Q86 627 79.5 643.0Q73 659 55 659Q41 659 15 647Q11 645 8.5 651.0Q6 657 9 658L146 724Q149 725 151 725Q155 725 159.5 721.5Q164 718 164 714V52Z"/><path transform="translate(411.79,0) scale(0.184000,-0.184000)" d="M154 271 147 283Q185 328 211.0 352.5Q237 377 255.5 386.5Q274 396 289 396Q310 396 331.5 382.0Q353 368 353 346Q353 328 342.5 316.5Q332 305 312 305Q294 305 284.5 314.5Q275 324 266.0 333.5Q257 343 240 343Q233 343 223.5 338.0Q214 333 198.0 318.0Q182 303 154 271ZM41 0Q38 0 38.0 6.0Q38 12 41 12Q76 12 87.0 26.0Q98 40 98 81V273Q98 305 91.0 320.0Q84 335 66 335Q56 335 43.5 331.0Q31 327 15 320Q11 319 9.0 324.5Q7 330 9 331L139 394Q144 396 145 396Q155 396 166.0 373.0Q177 350 177 307V81Q177 54 184.5 38.5Q192 23 212.0 17.5Q232 12 269 12Q273 12 273.0 6.0Q273 0 269 0Q243 0 209.5 1.0Q176 2 138 2Q111 2 85.5 1.0Q60 0 41 0Z"/><path transform="translate(477.85,0) scale(0.184000,-0.184000)" d="M317 -6Q313 -8 308 -8Q292 -8 276.5 15.0Q261 38 261 81V259Q261 322 248.0 349.5Q235 377 208 377Q183 377 169.0 363.0Q155 349 149.0 330.5Q143 312 141 298Q139 274 127.0 261.5Q115 249 92 249Q70 249 60.0 259.0Q50 269 50 283Q50 305 70.5 325.0Q91 345 122.0 361.0Q153 377 186.5 386.5Q220 396 247 396Q288 396 313.5 370.0Q339 344 339 289V108Q339 77 349.0 60.5Q359 44 378 44Q394 44 416 54Q420 56 422.5 50.5Q425 45 420 43ZM130 -7Q88 -7 67.5 13.0Q47 33 47 64Q47 91 61.5 108.0Q76 125 102.5 137.0Q129 149 163 161L271 202L274 187L197 155Q185 150 171.0 142.5Q157 135 148.0 123.5Q139 112 139 93Q139 68 155.0 53.5Q171 39 192 39Q201 39 210.0 41.5Q219 44 231 52L287 88L288 73L216 24Q193 8 173.5 0.5Q154 -7 130 -7Z"/><path transform="translate(555.13,0) scale(0.184000,-0.184000)" d="M45 0Q42 0 42.0 6.0Q42 12 45 12Q79 12 90.5 26.0Q102 40 102 81V263Q102 297 95.5 313.0Q89 329 71 329Q64 329 53.5 326.0Q43 323 31 317Q27 316 24.5 321.5Q22 327 25 329L167 395Q169 396 170 396Q174 396 178.5 392.0Q183 388 183 384Q183 374 182.0 344.5Q181 315 181 265V81Q181 40 192.5 26.0Q204 12 238 12Q241 12 241.0 6.0Q241 0 238 0Q219 0 194.0 1.0Q169 2 141 2Q114 2 89.0 1.0Q64 0 45 0Z"/></g>
<path transform="translate(582.67,-103.00) rotate(14)" fill="#C2A157" d="M 0,-19 Q 2.09,-2.09 19,0 Q 2.09,2.09 0,19 Q -2.09,2.09 -19,0 Q -2.09,-2.09 0,-19 Z"/>
</svg>